<?xml version="1.0" encoding="UTF-8"?>
<svg data-bbox="18 0 2010 624" xmlns="http://www.w3.org/2000/svg" height="1280" width="1280" viewBox="0 0 2048 635" data-type="ugc">
    <g>
        <path fill="#ED1F24" d="M18 15h109l12 31 28 70 12 31 22 55 16 41 14 35v2h125l5 12 18 46 38 98 14 36 19 49 12 31 9 23v3h213v-99l10 2 47 14 106 31 68 20 61 18 2 1v-87h44l1 125 16-12 72-52 19-14 14-10 18-13 19-14 18-13 11-8 8 6 13 10 15 12 14 11 15 12 28 22 15 12 14 11 15 12 28 22 16 13 11 8 1-139 1-1h288l1 1v43l-245 1v56l420 1v44h-524l-12-9-18-14-11-8h-193l-14 10-18 13-11 8h-92l-55-19-95-33-92-32-5-2v84H441l-32-82-22-57-16-41-38-98-7-18v-2H201l-12-29-12-31-22-55-13-33-11-28-17-43-18-45-38-1v123H18zm1191 505-36 26-1 2h73l-5-5-18-14-12-9z"/>
        <path fill="#867759" d="m651 14 14 1 12 2 2 1 2 21 1 8 22 8 4-1 15-16 3-3 4 1 17 10 4 4-9 26 2 4 8 7 7 7 6-1 22-9h2l11 16 4 6-2 4-16 16-1 4 10 23 29 1 2 5 4 20v3l-25 10h-2l1 29 24 12 1 3-5 24h-30l-3 9-7 15 1 5 9 11 7 8-2 4-11 15-2 3-5-1-20-10-5 2-8 8-11 9 3 12 4 13-1 4-21 12-5-5-10-11-3-4-8 1-23 7-4 28-21 2h-5l-3-7-5-18v-2l-15-1-9-1h-9l-13 21-3 1-22-8v-9l2-14v-5l-17-11-8-5-4 1-12 8-7 5-5-2-10-10-5-4 1-5 12-19-1-5-8-11-7-11-10 1-18 3-5-10-5-13 1-3 21-14-1-13-3-17-8-3-19-4v-24l2-4 20-4 7-2 6-24v-5l-19-14-2-3 11-23 10 1 16 4 5-1 15-20-2-5-11-20 5-5 10-9 5-4 4 1 13 10 7 5 5-1 19-10V42l-1-17 24-7h4l13 25 27-1 3-10 6-17zm-24 48-19 3-17 5-12 5-14 7-14 10-11 9-9 9-10 13-8 13-7 14-7 21-3 15-1 8v23l3 20 5 17 6 15 9 16 9 12 9 10 9 9 15 11 16 9 14 6 17 5 19 3h27l18-3 20-6 21-10 12-8 11-9 9-8 9-11 9-13 10-19 7-20 4-22v-29l-3-18-5-18-11-23-11-16-12-13-8-8-15-11-16-9-20-8-22-5-9-1z"/>
        <path fill="#897A5D" d="m631 136 16 4 5 2 13 4 3 2 8-1 1 3 40 14 40 15 10 3-1 2h-2v2h-2v-2l-10-3-30-11-5-1-12-5-24-8-5-2h-10l-4 2-3-1-18 1-1 2-7-1-1 2-8-1-9 1-15 1-3 1v-2l-15 3h-3l-12 1v4l9-2 14-1 31-3v-2h6v2l4-1 21-1 23-2 27 9 13 4 23 8 10 4 22 7-2 6-1 1v11l-1 7-2-4v-2l-2-1v9l-2 2v3h2l-1 4 1 4-1 9h-2l2 4-1 9-5 2-6 1h-2l-26 3h-3l-5 1-17 3h-7v-1l6-1-7 1v2h-7l-5-2v-1h5v-4h-6l1 3-6 2-9 2-2-1-7 2v1h-10l-2-6-2 1 1 5h-7v2l-9-1 4-2 1-1h-9l-3 2-15-1-9-3v2l-4 1-29 1-12 1h-25l-3-14 1-5v-32l-4-2v-3h5l-1-17v-3l-4-8 5-3h2l-1-3-2-1v-2l9-3 12-6h2v-2l12-3h5l2 1 12-3h5l-3 2 13-1 12-2 2 1-1-6-1 3h-2l-1 2h-5v-2l-10 3-5-1v-2l16-4 17-6 13-4zm-2 4 1 3v-3zm3 0 2 2v-2zm5 1 1 3v-3zm-14 1 6 11 2-1-6-10zm4 0 2 6 3 4 2-1-6-9zm7 0 2 4v-3zm-13 1 2 6 1-3zm10 0 2 5 3 5h2l-2-5zm11 0 2 5 3 3 2-1-6-7zm-27 1 1 6 4 4-3-9zm3 0 3 9h3l-4-9zm22 1 2 5h3zm14 0 2 2 1-2zm-45 1 2 8 2 1-2-9zm3 0 2 7 3 2-3-9zm25 0 2 7h3l-2-5zm21 0v2l5 1v-2zm-9 1 1 2zm-45 1-1 2 2 6 1-4zm2 0 2 7 2 1-2-8zm18 1 1 4 2-1zm27 0 1 3v-3zm3 0 1 2 2-1zm22 13-1 3h2l1 4h4l-1-4zm-113 1-1 2 1 2h2v-4zm83 0-1 2h2zm-93 1v4h3v-3zm-5 1v3l2-1v-2zm10 0-1 2h2zm73 0v2l2-1zm-86 1-5 2v1h6l1-3zm81 1-3 1 1 3h6l1-3zm11 0-1 3h2v-2l5 2v-3zm49 0v4l-2 1v5h3l-1 2-7-3h-9l-1 2 1 3 12 2 1 3 5 1v-2h-3v-2h3l1-6 5-1v3h2v8l-1 2 6 1-1-6 3 1 3 6 5 1-1-6h3l1 6 1-4-1-4-1-2h2l1 11 3-1v-4h3l2 7 4 1v-4h2l3 7-3 1-1 3v3h2v4h-3l-1-13-4 1v10l2 2v3l2 1h-2l-1-4-22-4h-3v-5l2 1 1 2 1-4-5-2 1-1v-5l-5-1v13h-6l1 6 6 2 1 2 14 2 18 1v-2l6 1v2l12 2h9l1-5-2-1-1-10-2 1v9h-3v-10l-3-1v11l-4-2 1-2v-15h2l1 5 3 1 1-4 4 6 1-3v-2l2-1-1-2h2l-1-5-2-1v3h-2l-1-4-3-2v4h-2l-1-4h-3l-1 2-3-6h-2l1 5-2-1-2-4-5 2-1-4-3-3v12l-4-4 2-1-2-9h-1l-1 5-2 1-1-5-4-1v-2h-2v4l-2-4h-6v3l-2 1-1-6-3-1v-2h-2v5l-4 1 1-4-2-3zm-86 2-3 3h2l-1 3 5 3 3-4-1-4zm7 0 2 2v-2zm6 0-2 1v2l6-1v-2zm56 0-6 2 4 4h11l5 1v-5l-10-2zm33 0 2 2v-2zm-167 1-4 3 5-1 2-2zm122 0-1 2h3v-2zm-75 1-1 4 5-1-1-3zm49 0-6 4-1 2 4-1 5-3v-2zm11 0 2 4 2-1v-2l2-1zm9 0-5 4 1 2 5-3v-2l2-1zm-31 1 2 4 3-2v-2zm15 0 3 3 5 2-3-4zm-66 0-2 5h-3l-2-3-5-1-3 2v3l-3 1v-3h-3l-3 3-4 3 3 4-4-1v2h3v4l1 2 7-1 3-6h5l2 4 5-1 1-1v-6h-4l-1 3-3-3-7 1-2 3v3h-2l2-5 1-3h7l4 1v-2l8 1 7-1 4 4 1 5 7-3 2-3h5l2 5 6-1 1-6-4-1-1-3-4-1v-3l-5 2-9 2 3 3-4-1-1-2h-7l-2-3h2l1 3 2-1-1-4zm19 1 1 2zm26 0v2l6 2v-2zm-5 1-5 5 4-2 3-3zm45 1-5 3-1 5h2l2-4 6-3zm-23 1-5 6v4l4-1 1-5 5-2v-2zm28 0 2 5 3 1-1-4zm-22 1 1 4 3 3v-5zm-22 0-4 1v2l6 2 1 2 2-1-3-5zm6 1-1 2 3 6 2-2 1-4-2-2zm22 0-1 2 1 5-3 1h11v-2h-4v-5zm46 0 6 9-1-6-2-3zm-80 1-3 3v4l3 1 1-5v-3zm-73 3-12 6 5 1 4-3 5-2 1-2zm37-1-5 4 1 5 2-1 1-4h6l2 2-1-4zm-47 2-1 2h2zm150 0 3 3 2-2zm-141 3-4 4 1 4 1-3 2-1 1 2 1-1v-5zm4 1 1 3zm50 0-1 2 3-1zm74 0-1 4 4 1-1-5zm7 0 1 3zm-21 1-3 2v3l2 1v3l5-2-2-7zm25-1v5l7 2h6v-5l-9-1zm-34 2 1 5 3-1v-4zm-114 1v2h2l1 2v-4zm12 0 1 2zm81 0v5h3l1-4zm5 0v4l7-1v-3zm-25 1v5l6-2 4 1 2-1-1-3zm-19 1v5h8v-4h2l-1 4-2 1 1 4 5-1 1-4-2-1v-4zm184 0v3l-3 1 3 5h-2l1 4h3l-1-9 1-4zm-202 1-1 6-18 1-1 2 1 3h2l1-2 1 1h16l5-2 4 1 3-1v-2h3v2h7l1-4h-14l-1-5zm113 0-1 3 6 2-1-4zm-145 1 1 2zm19 0-1 4h6l1-4zm54 0 1 2zm52 0v2l2-1zm3 0v2l4-1 1 2v-3zm43 0v2h2v-2zm4 0v12l4 1v-13zm-78 1 1 2 2-2zm10 0 1 2 4-1v-1zm77 0v12l4 1 1-6-2-7zm-177 1-2 4 3 1 1-4zm9-1-2 1 1 3 2-1zm73 1 4 5 2-1-2-4zm62 0 2 6h4v-6zm-82 1-1 2 5 1v-3zm12 0-1 2h2zm58 0 2 4h6l-1-3zm22 1v2h-2l1 3h2l1-3zm68 0 1 2h2v-2zm-230 1-1 8 1-3 2 1 1 3h2v-5h-3v-4zm119 1 4 1zm5 0 4 1zm-16 0v2l-4-1-1 2h6zm74 1 1 3v-3zm-172 1 1 4 2-1v-3zm72 0 1 2zm2 0v2l2-1zm10 0-1 2h5l1-2zm-41 1v3l2-2zm3 0 1 3h6l3-3zm91 0 1 3h2l-1-3zm8 1-1 2 1 2h-5v3l3 1v-2l4-2v-4zm-134 1-1 2h2zm16 0-3 2h9l-1-2zm93 0-1 2 4-1zm-103 1v1h6v-1zm80 0v3h8l-1-3zm11-1-1 5h-2v2l4-1v3l-6-1-6 1-2-1-6 1v-3h6l1-2-1-3h-8l-1 2-5-1-3 2 2 1-4 1-1-3-1 3h-4l-1-3h-28l-8 2-3-1-4 1h-6l-2 5h-5l-1 2 15 1 1 4h-1l-2-3-7-1-3 1 1 10 4 1-3 1 1 4h2v-2l2 2-7 2 4 1v4l-4 1 4 2 5 1h15l1 1h-15v5l4 1v2h-3v-2l-5 1 1 4 2 1h11l5 1 2-2v-4h-9l2-3-1-2h2v4l7 1v4l4 1 4-2 1 2v-5l-3-1-1-6 9-1v-3l-7-1-1-3-1 3-7-1h6v-4h7v2l3 1h7v-4h3l-2 5h-2v2l-5-1 1 4 11 4-4 1v-2l-3 1 1 3 7-1 2-1-1-3h-3l-1-5-1-1 2-1 1-1 2 1v-6h2l-1 6 1 1-4 2v2l10 1 3-1 1-4 2-1v-5l-4-1h-3l4-2v-3h2l-1 3 4 3-1 4 4 1-1-2 2-1v4h-7l-1 1v5l-4 1-2 4 5 1-1 1v5h13v-6l5-3 2-5-3-4 8-1 1-3-1-2h-5v-3l3-1-2-3h-12l-2-5h-2v-2h19l2-1 4-1v-7l11-1-2-3-6 1-5-1v-4zm25 3-3 3 5 1 1-4zm-9 1 1 2 3 1v-3zm-26 1-2 2 7 1-1-3zm-8 1v2h3v-2zm-77 1 4 1zm121 1-4 7 1 1 16 1v-6l-1 4h-5l-1-4-4-3zm-19 1-2 5 2 2h5v-2l2-1h-3v-2l2-1zm8 0 1 4 4-1v-3zm-127 1-4 2 3 3 2-1zm7 1 1 2 1-2zm154 0v3h-7l1 2h7l-5 2 1 9 5 1h-4v2l-4 1v1h8l-6 1v2h4l-1 3-3 2 6 1h14l-11 1-1 4 3 2h-5l-1 4h8l1-1v-5l7 1h-5v4l9-1 2-1 7 1 8-1h3v-4h-2v2l-6-1h-11v-5l6-1v-2l-6-2v2l-5-1h4l2-4 6 3 4-1v-2h5v3l6 1 1-5h-4l4-1 4 5-5 2-3 4v2l2 1-1 3h7v-3h-2l-1-4h3v-2l3 1v-3l3-1 1-3-2-2v-3l-6-1-1-4h11l1-4-15-3h-2l-20-3-17-2zm-159 1-1 2 5-1zm4 3-1 4h4v-4zm125-1-2 2h3zm-140 2v4h2v-4zm5 0v3l5-1-3-2zm6 1-1 2h2zm94 1 1 3h2l-1-3zm7 0 2 1v2h2v2l3-1 3-2v-2zm12 0 1 7-5-1-1 4 1 2h10l1-2-1-3-3-1 9-1v-5h-6v4h-3l1-3zm18 0 1 5h11l1-1 1 2h4v-6zm-124 1-2 1v4l5-1-1-4zm6 0 1 2zm86 0 1 3 1-3zm120 0-1 3 3 1v-4zm-229 2 1 4 3 1 4-2v-3zm-3 1 1 2zm14 2-1 2v9h2v-11zm121 0-1 1v5l4-1v-4zm10 0-1 1v5l12 1v5l4 6h2v-16l-1-1zm76 0 1 2zm12 0-1 4 3-1-1-3zm-5 0-2 1 1 2 2-1zm2 1 1 2zm-212 1 1 4 1-4zm-9 0-3 1-1 6h2v4l5-1v-9zm20 2-1 2 4-1zm199 0v8h3l1-7zm5 1 1 3 1-3zm-108 2-1 4v2h3l1 2 2-5v-2zm-97 1-1 4h5zm110-1 1 5h16v-4h-15zm-6 2 1 4 3-1v-3zm100 0 1 3zm-67 1v4h4v-2h-2v-2zm41 0 1 3 1-3zm12 0 1 2zm-17 3 1 3 3 2v3l5-2-1-2h-2l-1-4zm10 0-2 1v2h5l1-3zm-203 2 2 4-4 1 4 2h3l-1-5-1-2zm110 0v2h3v-2zm37 0 1 3 2-1-1-2zm71 1-2 4 3-1zm-27 1-4 1v3h7l1-4zm-166 1-1 1v5l-3 1 1 4 5-1-1-5h4v-5zm-31 1 1 2 1-2zm69-1-7 1 1 5h10l2-5-1-1zm48 1-1 2-3 1v3h2l1 2 2-3 4-1-1-4zm32 0 1 2 1-2zm4 0-1 5 5 1 3-3v-3zm15 0-1 5h-2l-1 4h5l1-3-1-2h4v-4zm-143 1 2 2v-2zm102 0v3h2l-1-3zm-109 0-2 2h3zm3 1v2l2-1zm-2 3-1 3-2-1v3h9l1-5zm-12 1-1 3 4 1v-3zm60 0-1 3 1 2h11l2-3-4-2-6 2v-2zm13 0v5h5l-1-5zm9 0-2 3-1-2v4l7 1-1-3 2-1-1-2zm21 0 1 2 1-2zm49 0-3 3 4 2 3-2v-3zm-35 2v4h6l-1-2h-3v-2zm-7 2 3 2 2-1zm-91 1 2 2h10l-2-2zm20 0-1 2h3v-2zm8 1 1 2h6l1-2zm68 0v2l2-1z"/>
        <path fill="#87785A" d="M1714 15h31l4 25 2 15 5-40h32v99l-1 1h-20l-1-56-7 55-1 1h-14l-2-7-6-46-1 53h-21z"/>
        <path fill="#87785A" d="M1129 15h34l10 2 6 4 4 6 2 11v57l-2 11-4 5-6 3-6 1h-37l-1-1zm24 17v65h5l2-3V35l-1-2z"/>
        <path fill="#867759" d="M1112 175h30l12 2 6 4 4 5 2 7v19l-3 5-4 3h-3v2l5 1 5 5 2 7v24l-2 8-4 5-4 2-7 1h-39zm24 18v21l7-1 1-5v-10l-3-5zm0 37v27l2 1 5-3 1-3v-17l-2-4z"/>
        <path fill="#867759" d="M1043 175h24l1 79 1 5h3l1-3 1-81h24v81l-3 9-7 8-10 4h-13l-11-4-7-6-3-6-1-8z"/>
        <path fill="#867759" d="M1518 15h24l1 84 4-1 1-5 1-78h24v79l-2 9-6 8-6 4-8 2h-10l-10-3-6-4-4-5-3-7z"/>
        <path fill="#87785A" d="M925 15h20l3 8 9 30 1-38h20v100h-20l-3-7-9-32-1 38-1 1h-19z"/>
        <path fill="#867759" d="M1013 13h14l10 4 5 5 4 6 2 14v46l-2 13-5 8-6 5-10 3h-10l-10-3-8-7-4-8-1-6V37l2-9 6-9 6-4zm6 17-2 1-1 4v60l1 4h5l1-1V31z"/>
        <path fill="#867759" d="M1822 13h14l9 3 6 5 5 9 1 5v59l-3 10-7 8-8 4-5 1h-10l-10-3-7-6-5-10-1-14V46l1-14 5-10 7-6zm6 17-2 2v66l5 1 2-3V34l-2-4z"/>
        <path fill="#87785A" d="M1061 15h35l9 2 5 4 4 8 1 4v18l-3 8-4 3-3 1 6 4 3 4 1 3v40l-1 1h-21l-1-35-1-8-6-2v45h-23l-1-1zm25 17-1 1v21h5l2-2 1-13-2-6z"/>
        <path fill="#867759" d="M1665 13h14l9 3 7 6 4 8 1 5v59l-2 8-6 9-10 5-5 1h-10l-11-4-6-5-4-8-1-3V33l4-10 8-7zm6 17-2 2v66l5 1 2-3V33l-2-3z"/>
        <path fill="#87785A" d="M1865 15h26l6 56 4-47 1-9h26l-3 28-8 65-2 7h-35l-2-4-13-94z"/>
        <path fill="#87785B" d="M1461 15h35l10 71 3 22v7h-24l-1-1-1-17h-8l-1 17-1 1h-24l1-17 10-81zm18 28-2 10-2 17v9h8l-3-36z"/>
        <path fill="#87795B" d="M947 173h12l11 4 5 4 4 7 2 11v20h-24l-1-28h-5l-1 1v66l4 1 2-6 1-18h24v16l-2 11-4 6-7 6-9 3h-13l-9-3-6-4-5-8-2-13v-50l2-11 4-6 7-6z"/>
        <path fill="#867759" d="M1268 13h15l9 3 7 5 3 7 1 17h-23l-1-13-4-1-2 3v8l2 6 5 2 16 12 6 8 2 6 1 15-2 13-4 6-8 5-8 2h-10l-11-3-8-7-3-7-1-7V79h23l1 19 6 1V83l-6-7-14-10-7-7-3-8-1-13 2-12 4-6 5-4z"/>
        <path fill="#87785A" d="M1375 15h40v20l-15 1-1 18h15v19h-15v21h18v20l-1 1h-40l-1-1z"/>
        <path fill="#87785A" d="M1198 15h40v20l-15 1-1 18h15v19h-15v21h18v20l-1 1h-40l-1-1z"/>
        <path fill="#867759" d="M1181 175h40v20l-15 1v17l14 1v19l-14 1v20l17 1v20h-42z"/>
        <path fill="#87785B" d="M1937 15h40v20h-16v19h15v19h-15v21h17v21h-41l-1-2V16z"/>
        <path fill="#87785B" d="M1583 15h52v20h-14v79l-1 1h-23l-1-79-14-1V16z"/>
        <path fill="#87785A" d="M1313 15h52v20h-14v79l-1 1h-23l-1-79-13-1-1-2V16z"/>
        <path fill="#897A5D" d="M994 175h24l1 1v78l14 1v20h-39z"/>
        <path fill="#87785B" d="M1990 15h24v79h14v21h-38z"/>
        <path fill="#8C7D61" d="m758 225 4 1-1 12h-2l2 4-1 9-5 2-6 1h-2l-26 3h-3l-5 1-17 3h-7v-1l6-1h-7l1-2h6v-5l6-1 3 2-3 1h-3l-1 3 8-1 1-5h2l1-3v3h6l-2 2h-5v2l9-1 2-2v2h7l8-1 3 1v-4h-2v2h-15l-2-1v-5l6-1v-2l-5-1-1 1h-7l2-2 4 1-1-4 4-1 5 3h3l1-2 6-1v3l5 1 1-4-5 1 1-2h3l1-2 5 8-5 1-4 6h5l-4 4h7v-3h-2l-1-4h3v-2l3-1-1-2h4l-2-5 1-2-7-2v-4l10-1h3l2 1zm-13 4 1 2zm12 0-1 4 3-1-1-3zm-5 0-2 1 1 2 2-1zm2 1 1 2zm-2 3v8h3l1-7zm5 1 1 3 1-3zm-1 4 1 3zm-26 1 1 3 1-3zm12 0 1 2zm-17 3 1 3 3 2v3l5-2-1-2h-2l-1-4zm10 0-2 1v2h5l1-3zm15 3-2 4 3-1zm-27 1-4 1v3h7l1-4z"/>
        <path fill="#87785A" d="M622 230h2v3l4 3-1 4 4-2 1 4-4 1h-4l-1 5-5 3v3l-3 2-4 2-1-3-4-2 6-2-1-2-3-1-1-4-2-2 3-1v-2l2 1 1 1v-6h2v6l8 1v1l-11 1-1 2h13l1-5h2v-5l-4-1-1 2-5-1 3-2 3-1z"/>
        <path fill="#867759" d="M1825 0h18l-6 7-6 5h-13z"/>
        <path fill="#8E8065" d="m708 248 1 3h6l-2 2h-5v2l9-1 2-2v2h7l4-1 2 3-11 1h-3l-5 1-17 3h-7v-1l6-1h-7l1-2h6v-5l6-1 3 2-3 1h-3l-1 3 8-1 1-5h2z"/>
        <path fill="#8B7D60" d="m614 142 2 1-2 4-5-1 1 3h-3v3h-2l-1-3-3 2v2h-2l-1 2h-5v-2l-10 3-5-1v-2l16-4 17-6z"/>
        <path fill="#96896F" d="M584 236h7l2 1v2l10 1v-4h3l-2 6-6 1 1 4-4 1h-8l2-2h7v-3h-7l-1-3-1 2h-9l2-2h5l1-3z"/>
        <path fill="#8C7D61" d="M618 253h9l-1 2h-4v6l-6 3-15-1-7-2v-2l4-1h6l2-1v2l6-1 6 1 1-3z"/>
        <path fill="#8A7C5F" d="m599 246 7 2 4 2-5 1v-2l-2 1v3h3v2l2 1h-3l-3-1-6 1v-2l-3 1 1 5h-2v2l-6 1v-3l2-3h2l1-3-4-1v-5l2 4h10l1-4z"/>
        <path fill="#908267" d="m719 237 6 3 5-1v3l-3 1-2-1 1 2 6 3-3 2h2v3h-11l-2-1v-5l6-1v-2l-5-1-1 1h-7l2-2 4 1-1-4zm4 9-4 1v3h7l1-4z"/>
        <path fill="#918367" d="m740 234 4 5 2 3-5 1-4 6h5l-4 3-1-2h-2v2l-4-1v-2l2-2-2-1-1-4 2-3-3-1 6-1v3l5 1 1-4-5 1 1-2h3zm2 5 1 2zm-7 3-2 1v2h5l1-3z"/>
        <path fill="#9B8E76" d="m735 193 3 1 2 5 1 2h-3v4l2 1-1 3v3l-5-1v-16z"/>
        <path fill="#8C7E61" d="M742 195h2l2 5 2 1-1 3-2-1v11l-5-1 1-3v-13z"/>
        <path fill="#897A5D" d="m728 191 3 1 2 7-3 3 1 4 1 5-5-1v-18z"/>
        <path fill="#918367" d="m754 226 3 2-2 6-4 1-8-3v-4l10-1zm-9 3 1 2zm7 0-2 1 1 2 2-1zm2 1 1 2z"/>
        <path fill="#8D7F63" d="m614 142 2 1-2 4-5-1 1 3h-3v3h-2l-1-3-3 2v2h-2l-1-4 6-4z"/>
        <path fill="#9A8D74" d="m718 252 1 2h7l4-1 2 3-11 1h-3l-5 1-7 1 1-4 10-1z"/>
        <path fill="#8C7E61" d="M622 230h2v3l4 3-1 4 4-2 1 4-4 1-5-1 2-1v-5l-4-1-1 2-5-1 3-2 3-1z"/>
        <path fill="#8E8064" d="M629 246h3l1 3 6-2-2 3h-2v2l-2 1-2 3-3-3z"/>
        <path fill="#94866C" d="M635 209h6l-4 2 5 2-3 2-5-1h-6l-1-3 5-1zm-6 2v2h3v-2z"/>
        <path fill="#867759" d="M611 235h2v6l8 1v1l-11 1-2 2-3-4 3-1v-2l2 1 1 1z"/>
        <path fill="#8F8166" d="m553 180 7 1 3 3-1 2-1-3h-7l-3 3-1 3h-2l1-5z"/>
        <path fill="#93856B" d="m594 220 1 2h-2v5l7 2v1h-8l-1-1v-6h-3v-2z"/>
        <path fill="#93866B" d="m642 259 6 1v2l3-1 1 3h-10l-1-4z"/>
        <path fill="#94866C" d="m610 221 4 1-2 7-7 3-3-3 3-1h5l1-4-2-2z"/>
        <path fill="#8D7F62" d="m563 249 1 3h5l-1 3h-3v-2l-5 1-1 3-1-5h4zm-8 9 3 1z"/>
        <path fill="#867759" d="M724 245h5l3 3-3 1h2v3h-8l-1-2h4l1-4z"/>
        <path fill="#9C9077" d="M689 176h5v3h2l1 9-2-1-3-9h-3l-1 2z"/>
        <path fill="#8B7C60" d="M592 215h9l-4 2-1 3-1-2-6-1z"/>
        <path fill="#8C7D61" d="m699 178 1 2 4-1 3 4v2h-2l-1-3h-5l-1-3z"/>
        <path fill="#9A8D74" d="M734 227h2l-1 6-5 1-1-2h5z"/>
        <path fill="#867759" d="m724 225 1 2h-2v5l4 1h-5l-2-7z"/>
        <path fill="#8D7E62" d="M572 222h11l-6 3-5-2z"/>
        <path fill="#867759" d="M708 226h8l-3 3-5-1z"/>
        <path fill="#8F8165" d="M699 222h4l1 3 3 2-5-1z"/>
        <path fill="#9A8D74" d="M606 219v3h-8v-1z"/>
        <path fill="#867759" d="m622 217 2 1v3l-4-1v-2z"/>
        <path fill="#867759" d="M673 261h4v3l-4-1z"/>
        <path fill="#918367" d="M570 241h5l1 2h-6z"/>
        <path fill="#867759" d="m633 233 2 3h-6l1-2z"/>
        <path fill="#867759" d="M721 222h8l-4 3v-2z"/>
        <path fill="#93856B" d="m750 193 3 2-1 4z"/>
        <path fill="#867759" d="m743 192 3 1 1 5-4-5z"/>
        <path fill="#867759" d="m728 187 4 1 1 3h-2z"/>
        <path fill="#867759" d="M583 229h8v1h-8z"/>
        <path fill="#95876D" d="M727 226h5l-2 2h-3z"/>
        <path fill="#978A70" d="M705 242h5l-4 2z"/>
        <path fill="#867759" d="M613 229h6l-4 2z"/>
        <path fill="#9A8D74" d="M565 241h3v2h-3z"/>
        <path fill="#AEA38F" d="m619 222 3 1-2 3z"/>
        <path fill="#9A8D74" d="m761 217 1 2 3 1h-4z"/>
        <path fill="#9E9179" d="M607 264h4l-1 2z"/>
        <path fill="#9E9179" d="M736 232h2v2l-3-1z"/>
        <path fill="#867759" d="M716 232h5v1h-5z"/>
        <path fill="#867759" d="m579 229 3 1-1 2z"/>
        <path fill="#867759" d="m615 220 3 1-3 1z"/>
        <path fill="#867759" d="M617 214h1v5h-1z"/>
        <path fill="#867759" d="m634 237 1 3-2-1z"/>
        <path fill="#867759" d="M744 236h2v2h-2z"/>
        <path fill="#A49882" d="M595 231v3z"/>
        <path fill="#867759" d="M740 225h2v2h-2z"/>
        <path fill="#A49882" d="m560 222 3 1h-3z"/>
        <path fill="#A49882" d="M572 163h2v2h-2z"/>
        <path fill="#AEA38F" d="m585 249 1 2-2-1z"/>
        <path fill="#AEA38F" d="m634 246 1 2-2-1z"/>
        <path fill="#867759" d="m702 242 2 1-2 1z"/>
        <path fill="#AEA38F" d="m633 241 2 2h-2z"/>
        <path fill="#AEA38F" d="m725 237 3 1z"/>
        <path fill="#867759" d="M607 236h2l-1 2z"/>
        <path fill="#867759" d="m576 235 2 1-2 1z"/>
        <path fill="#867759" d="M713 232h2l-1 2z"/>
        <path fill="#867759" d="m698 225 2 2h-2z"/>
        <path fill="#867759" d="m715 223 1 2-2-1z"/>
        <path fill="#AEA38F" d="m581 218 1 2-2-1z"/>
        <path fill="#AEA38F" d="m741 217 3 1z"/>
        <path fill="#867759" d="m588 162 1 2-2-1z"/>
        <path fill="#867759" d="m560 157 3 1z"/>
        <path fill="#867759" d="m587 255 2 1z"/>
        <path fill="#867759" d="m599 235 2 1z"/>
        <path fill="#867759" d="m596 235 2 1z"/>
        <path fill="#C2BAAB" d="m703 228 2 1z"/>
        <path fill="#867759" d="m591 161 2 1z"/>
        <path fill="#867759" d="m613 160 2 1z"/>
        <path fill="#867759" d="m569 155 2 1z"/>
        <path fill="#C2BAAB" d="m572 154 2 1z"/>
    </g>
</svg>
